HIERARCHY
ROOT Pelvis
{
	OFFSET 0.000000 0.000000 0.000000
	CHANNELS 6 Xposition Yposition Zposition Xrotation Yrotation Zrotation
	JOINT LeftUpLeg_virtual
	{
		OFFSET 0.000000 0.000000 0.000000
		CHANNELS 3 Xrotation Yrotation Zrotation
		JOINT LeftUpLeg
		{
			OFFSET 18.735201 -5.666702 -4.541200
			CHANNELS 3 Xrotation Yrotation Zrotation
			JOINT LeftLeg
			{
				OFFSET -0.021200 -31.938179 0.493100
				CHANNELS 3 Xrotation Yrotation Zrotation
				JOINT LeftFoot
				{
					OFFSET 0.021200 -31.938179 -4.336299
					CHANNELS 3 Xrotation Yrotation Zrotation
					JOINT LeftToeBase
					{
						OFFSET 0.943001 -26.722000 15.023500
						CHANNELS 3 Xrotation Yrotation Zrotation
						End Site
						{
							OFFSET 0 0 0
						}
					}
				}
			}
		}
	}
	JOINT RightUpLeg_virtual
	{
		OFFSET 0.000000 0.000000 0.000000
		CHANNELS 3 Xrotation Yrotation Zrotation
		JOINT RightUpLeg
		{
			OFFSET -18.735201 -5.666702 -4.541200
			CHANNELS 3 Xrotation Yrotation Zrotation
			JOINT RightLeg
			{
				OFFSET 0.018946 -31.938133 0.493100
				CHANNELS 3 Xrotation Yrotation Zrotation
				JOINT RightFoot
				{
					OFFSET -0.018946 -31.938126 -4.336299
					CHANNELS 3 Xrotation Yrotation Zrotation
					JOINT RightToeBase
					{
						OFFSET -0.943001 -26.722004 15.023500
						CHANNELS 3 Xrotation Yrotation Zrotation
						End Site
						{
							OFFSET 0 0 0
						}
					}
				}
			}
		}
	}
	JOINT Hips_virtual
	{
		OFFSET 0.000000 0.000000 0.000000
		CHANNELS 3 Xrotation Yrotation Zrotation
		JOINT Hips
		{
			OFFSET -0.000000 -0.000000 -0.000000
			CHANNELS 3 Xrotation Yrotation Zrotation
			JOINT Spine
			{
				OFFSET 0.000000 10.199997 -0.299500
				CHANNELS 3 Xrotation Yrotation Zrotation
				JOINT Spine1
				{
					OFFSET 0.000000 11.900002 -1.516600
					CHANNELS 3 Xrotation Yrotation Zrotation
					JOINT Spine2
					{
						OFFSET 0.000000 13.600006 -2.842500
						CHANNELS 3 Xrotation Yrotation Zrotation
						JOINT Neck_virtual
						{
							OFFSET 0.000000 0.000000 0.000000
							CHANNELS 3 Xrotation Yrotation Zrotation
							JOINT Neck
							{
								OFFSET 0.000000 9.624100 -2.890100
								CHANNELS 3 Xrotation Yrotation Zrotation
								JOINT Head
								{
									OFFSET 0.000000 14.068802 -1.351900
									CHANNELS 3 Xrotation Yrotation Zrotation
									End Site
									{
										OFFSET 0 0 0
									}
								}
							}
						}
						JOINT LeftShoulder_virtual
						{
							OFFSET 0.000000 0.000000 0.000000
							CHANNELS 3 Xrotation Yrotation Zrotation
							JOINT LeftShoulder
							{
								OFFSET 15.263000 10.923401 -0.547700
								CHANNELS 3 Xrotation Yrotation Zrotation
								JOINT LeftArm
								{
									OFFSET 25.438599 -2.830597 -13.032500
									CHANNELS 3 Xrotation Yrotation Zrotation
									JOINT LeftForeArm
									{
										OFFSET 29.960503 0.000000 0.000000
										CHANNELS 3 Xrotation Yrotation Zrotation
										JOINT LeftHand
										{
											OFFSET 27.849251 0.000000 0.000000
											CHANNELS 3 Xrotation Yrotation Zrotation
											End Site
											{
												OFFSET 0 0 0
											}
										}
									}
								}
							}
						}
						JOINT RightShoulder_virtual
						{
							OFFSET 0.000000 0.000000 0.000000
							CHANNELS 3 Xrotation Yrotation Zrotation
							JOINT RightShoulder
							{
								OFFSET -15.263000 10.923401 -0.547700
								CHANNELS 3 Xrotation Yrotation Zrotation
								JOINT RightArm
								{
									OFFSET -25.438599 -2.830597 -13.032500
									CHANNELS 3 Xrotation Yrotation Zrotation
									JOINT RightForeArm
									{
										OFFSET -29.960503 0.000000 0.000000
										CHANNELS 3 Xrotation Yrotation Zrotation
										JOINT RightHand
										{
											OFFSET -27.849251 0.000000 0.000000
											CHANNELS 3 Xrotation Yrotation Zrotation
											End Site
											{
												OFFSET 0 0 0
											}
										}
									}
								}
							}
						}
					}
				}
			}
		}
	}
}
MOTION
Frames: 8
Frame Time: 0.03333333
0.167552 93.757607 1.980778 0.000000 0.000000 0.000000 12.726463 -6.985123 -2.803094 -23.265011 11.287158 12.053611 29.299688 2.158186 -0.109867 -17.421507 2.442355 -4.034991 0.000000 0.000000 0.000000 7.007833 -2.321754 1.954167 -20.402364 -6.150915 -12.721877 28.326396 -2.335652 -0.756015 -19.493300 -6.152001 8.233211 0.000000 0.000000 0.000000 -1.228118 -1.493202 0.518901 -0.618373 10.827345 0.012356 4.710536 -0.367885 -0.323006 0.591846 0.187621 0.210588 0.000000 0.000000 0.000000 2.379869 0.077732 0.125975 -0.583851 0.187231 -0.147991 0.000000 0.000000 0.000000 1.733106 0.362836 -1.038957 0.922286 -4.001252 -11.767102 -6.968268 -13.581759 -45.714975 3.794327 -46.490468 -0.140389 0.000000 0.000000 0.000000 2.143918 -0.038576 2.019646 0.597255 7.517603 13.849266 0.829858 -2.110968 48.852419 1.604162 34.182901 2.774978 0.000000 0.000000 0.000000 
0.146949 93.760727 2.002279 0.000000 0.000000 0.000000 12.764529 -7.027413 -2.807006 -23.214657 11.287045 12.040728 29.236765 2.187562 -0.115376 -17.475143 2.478925 -4.036227 0.000000 0.000000 0.000000 7.027210 -2.251223 1.961409 -20.380369 -6.136865 -12.706638 28.326482 -2.351499 -0.750350 -19.507343 -6.168331 8.223853 0.000000 0.000000 0.000000 -1.228984 -1.538708 0.516326 -0.597581 10.959232 -0.034489 4.698137 -0.405191 -0.347562 0.567639 0.193273 0.227764 0.000000 0.000000 0.000000 2.392380 0.071837 0.140175 -0.576058 0.193381 -0.151133 0.000000 0.000000 0.000000 1.702720 0.366003 -1.041079 0.923795 -3.918591 -11.836138 -6.928425 -13.682922 -45.496846 3.896228 -46.547507 -0.048040 0.000000 0.000000 0.000000 2.148958 -0.019839 2.025570 0.646991 7.538914 13.883441 0.745148 -2.251799 48.943817 1.525439 34.222465 2.830006 0.000000 0.000000 0.000000 
0.118273 93.766983 2.043912 0.000000 0.000000 0.000000 12.830853 -7.099330 -2.820473 -23.126336 11.288897 12.011326 29.129988 2.240282 -0.125547 -17.566253 2.544844 -4.039345 0.000000 0.000000 0.000000 7.067140 -2.112758 1.975571 -20.334045 -6.109766 -12.676432 28.320461 -2.377822 -0.739251 -19.536590 -6.195988 8.209109 0.000000 0.000000 0.000000 -1.231548 -1.626664 0.517052 -0.557771 11.215901 -0.101649 4.673519 -0.468734 -0.390809 0.526185 0.201826 0.257969 0.000000 0.000000 0.000000 2.414999 0.061079 0.166641 -0.561343 0.203739 -0.157216 0.000000 0.000000 0.000000 1.647270 0.372422 -1.044354 0.924883 -3.763143 -11.956110 -6.861998 -13.855959 -45.092612 4.072139 -46.665010 0.113552 0.000000 0.000000 0.000000 2.163677 0.013309 2.035056 0.742928 7.566156 13.935350 0.595061 -2.511724 49.116136 1.385747 34.293888 2.933203 0.000000 0.000000 0.000000 
0.100007 93.776047 2.103574 0.000000 0.000000 0.000000 12.910395 -7.178412 -2.850991 -23.019305 11.296235 11.961586 29.007243 2.305824 -0.138562 -17.671252 2.627555 -4.045039 0.000000 0.000000 0.000000 7.129499 -1.914444 1.996016 -20.259504 -6.072265 -12.632235 28.298959 -2.406392 -0.723440 -19.582458 -6.227145 8.194665 0.000000 0.000000 0.000000 -1.236298 -1.750339 0.530557 -0.501775 11.580883 -0.148904 4.638990 -0.540318 -0.443406 0.477847 0.209099 0.294721 0.000000 0.000000 0.000000 2.444519 0.047263 0.201620 -0.541104 0.215313 -0.166041 0.000000 0.000000 0.000000 1.575741 0.381883 -1.046899 0.923015 -3.553715 -12.098213 -6.791835 -14.055385 -44.556616 4.277172 -46.847830 0.307794 0.000000 0.000000 0.000000 2.194592 0.053827 2.043842 0.878084 7.575024 13.977982 0.411684 -2.853109 49.353267 1.213223 34.387851 3.073175 0.000000 0.000000 0.000000 
0.107357 93.786781 2.179208 0.000000 0.000000 0.000000 12.989529 -7.238862 -2.902846 -22.911518 11.312762 11.891638 28.891919 2.371731 -0.151506 -17.770313 2.712171 -4.053123 0.000000 0.000000 0.000000 7.216360 -1.672014 2.021661 -20.152159 -6.029027 -12.576274 28.254257 -2.429653 -0.704235 -19.644992 -6.254342 8.185173 0.000000 0.000000 0.000000 -1.242059 -1.898107 0.566210 -0.432559 12.027146 -0.141481 4.601029 -0.600822 -0.495977 0.431543 0.211405 0.331847 0.000000 0.000000 0.000000 2.478691 0.032486 0.240038 -0.516941 0.225388 -0.177608 0.000000 0.000000 0.000000 1.498603 0.393389 -1.046095 0.916794 -3.315278 -12.233733 -6.744057 -14.238318 -43.951174 4.465208 -47.098543 0.498085 0.000000 0.000000 0.000000 2.246258 0.094278 2.046769 1.042423 7.542071 13.982881 0.229335 -3.231346 49.639817 1.035639 34.502639 3.237429 0.000000 0.000000 0.000000 
0.145639 93.796722 2.269409 0.000000 0.000000 0.000000 13.061299 -7.260915 -2.974043 -22.813006 11.340686 11.807038 28.795166 2.426376 -0.160554 -17.853746 2.784583 -4.061882 0.000000 0.000000 0.000000 7.329881 -1.407066 2.050665 -20.006956 -5.986039 -12.512290 28.184892 -2.443379 -0.683236 -19.721177 -6.273027 8.182792 0.000000 0.000000 0.000000 -1.246142 -2.052188 0.629366 -0.352876 12.519913 -0.065580 4.570182 -0.636104 -0.541808 0.391525 0.206996 0.365655 0.000000 0.000000 0.000000 2.516608 0.018598 0.276514 -0.490616 0.232650 -0.192087 0.000000 0.000000 0.000000 1.426229 0.404884 -1.039017 0.906970 -3.074198 -12.342885 -6.741488 -14.379232 -43.334712 4.602053 -47.413671 0.657973 0.000000 0.000000 0.000000 2.318512 0.128692 2.039262 1.223986 7.453181 13.929185 0.074735 -3.602969 49.964978 0.871905 34.651257 3.415136 0.000000 0.000000 0.000000 
0.209294 93.802101 2.374051 0.000000 0.000000 0.000000 13.127379 -7.239577 -3.056833 -22.722964 11.379391 11.716588 28.717384 2.461207 -0.161661 -17.920562 2.833920 -4.068175 0.000000 0.000000 0.000000 7.472295 -1.141573 2.080081 -19.818453 -5.948947 -12.445359 28.097202 -2.447491 -0.661723 -19.804531 -6.282601 8.187464 0.000000 0.000000 0.000000 -1.246520 -2.190387 0.718706 -0.265556 13.024974 0.067053 4.557824 -0.640310 -0.577727 0.357108 0.196229 0.395641 0.000000 0.000000 0.000000 2.557690 0.006834 0.306619 -0.464145 0.237643 -0.209534 0.000000 0.000000 0.000000 1.368015 0.413608 -1.023095 0.896123 -2.852681 -12.418124 -6.798983 -14.474052 -42.756178 4.671049 -47.780722 0.774112 0.000000 0.000000 0.000000 2.406117 0.153377 2.018726 1.410607 7.307386 13.809297 -0.038341 -3.930962 50.321839 0.729503 34.861251 3.597985 0.000000 0.000000 0.000000 
0.285826 93.798538 2.495208 0.000000 0.000000 0.000000 13.196516 -7.187840 -3.140902 -22.631002 11.425219 11.628319 28.655895 2.472073 -0.151650 -17.972123 2.854084 -4.068350 0.000000 0.000000 0.000000 7.645751 -0.892087 2.105990 -19.581367 -5.921473 -12.381167 28.002828 -2.445231 -0.640332 -19.886688 -6.285889 8.197814 0.000000 0.000000 0.000000 -1.244677 -2.292238 0.825786 -0.175286 13.518744 0.226420 4.571115 -0.615675 -0.603325 0.324623 0.180513 0.423622 0.000000 0.000000 0.000000 2.600438 -0.002182 0.327840 -0.439679 0.242453 -0.229506 0.000000 0.000000 0.000000 1.331417 0.417044 -0.996878 0.887213 -2.664727 -12.461610 -6.922308 -14.534132 -42.255047 4.671108 -48.177836 0.843151 0.000000 0.000000 0.000000 2.500442 0.166816 1.985237 1.591574 7.115509 13.629860 -0.108105 -4.186863 50.703284 0.607833 35.166086 3.779199 0.000000 0.000000 0.000000 
